<?xml version="1.0" encoding="UTF-8"?>
<svg version="1.1" xmlns="http://www.w3.org/2000/svg" width="96" height="96">
<path d="M0 0 C23.76 0 47.52 0 72 0 C72 21.78 72 43.56 72 66 C48.24 66 24.48 66 0 66 C0 44.22 0 22.44 0 0 Z M6 6 C6 7.98 6 9.96 6 12 C25.8 12 45.6 12 66 12 C66 10.02 66 8.04 66 6 C46.2 6 26.4 6 6 6 Z M6 18 C6 31.86 6 45.72 6 60 C25.8 60 45.6 60 66 60 C66 46.14 66 32.28 66 18 C46.2 18 26.4 18 6 18 Z " fill="#FFFFFF" transform="translate(12,15)"/>
<path d="M0 0 C3.95908171 1.53168093 5.86004104 3.95770817 8.375 7.3125 C9.10460937 8.25738281 9.83421875 9.20226563 10.5859375 10.17578125 C12 13 12 13 11.484375 15.5234375 C9.80562259 18.32430336 7.95584745 20.79534583 5.875 23.3125 C5.15054688 24.19550781 4.42609375 25.07851562 3.6796875 25.98828125 C3.12539062 26.65214844 2.57109375 27.31601563 2 28 C-0.475 27.01 -0.475 27.01 -3 26 C-3 21.76080513 -2.91246409 21.50025923 -0.375 18.5625 C1.01337611 16.79579527 1.01337611 16.79579527 2 15 C1.42729277 11.56375661 0.03968143 10.04761771 -2.1875 7.375 C-2.785625 6.59125 -3.38375 5.8075 -4 5 C-3 2 -3 2 0 0 Z " fill="#FFFFFF" transform="translate(61,40)"/>
<path d="M0 0 C2.475 0.99 2.475 0.99 5 2 C5 6.23919487 4.91246409 6.49974077 2.375 9.4375 C0.98662389 11.20420473 0.98662389 11.20420473 0 13 C0.57270723 16.43624339 1.96031857 17.95238229 4.1875 20.625 C4.785625 21.40875 5.38375 22.1925 6 23 C5.67 23.99 5.34 24.98 5 26 C2.4375 27.1875 2.4375 27.1875 0 28 C-1.4874965 26.25707481 -2.96472492 24.50538246 -4.4375 22.75 C-5.26121094 21.77546875 -6.08492187 20.8009375 -6.93359375 19.796875 C-10.07360905 15.54687319 -10.07360905 15.54687319 -10 13 C-8.6178935 10.75628243 -7.27032918 8.84222901 -5.625 6.8125 C-5.19960938 6.26658203 -4.77421875 5.72066406 -4.3359375 5.15820312 C-1.36638393 1.36638393 -1.36638393 1.36638393 0 0 Z " fill="#FFFFFF" transform="translate(33,40)"/>
<path d="M0 0 C2.31 0 4.62 0 7 0 C6.43617776 6.99365488 5.37639601 13.76100843 3.9375 20.625 C3.6580957 21.98818359 3.6580957 21.98818359 3.37304688 23.37890625 C2.91982704 25.5869003 2.46210307 27.79385124 2 30 C-0.31 30 -2.62 30 -5 30 C-4.43617776 23.00634512 -3.37639601 16.23899157 -1.9375 9.375 C-1.75123047 8.46621094 -1.56496094 7.55742188 -1.37304688 6.62109375 C-0.91982704 4.4130997 -0.46210307 2.20614876 0 0 Z " fill="#FFFFFF" transform="translate(47,39)"/>
</svg>
