<?xml version="1.0" encoding="UTF-8"?>
<svg version="1.1" xmlns="http://www.w3.org/2000/svg" width="96" height="96">
<path d="M0 0 C21.78 0 43.56 0 66 0 C65.07134874 11.90362073 64.13845937 23.8066347 63.18353271 35.70812988 C63.01926414 37.75943845 62.85645869 39.81086406 62.69384766 41.86230469 C62.44995491 44.90896492 62.19628284 47.95457438 61.9375 51 C61.87062988 51.85029785 61.80375977 52.7005957 61.73486328 53.57666016 C61.54564003 55.72935291 61.28725161 57.85862053 61 60 C60.89042969 61.09054688 60.78085938 62.18109375 60.66796875 63.3046875 C57.73158001 68.04967165 52.55082868 68.73753311 47.375 70.125 C45.67706299 70.5897876 45.67706299 70.5897876 43.94482422 71.06396484 C33.89358421 73.53276579 27.54965569 72.69063528 18 69 C15.8793257 68.50203793 13.75459726 68.0208025 11.625 67.5625 C9.0390625 67.00390625 9.0390625 67.00390625 7 66 C5.24382489 62.43084673 4.65004451 59.20411124 4.31396484 55.26342773 C4.21401215 54.13553329 4.11405945 53.00763885 4.01107788 51.8455658 C3.91203156 50.63711502 3.81298523 49.42866425 3.7109375 48.18359375 C3.60278717 46.93498062 3.49463684 45.68636749 3.38320923 44.3999176 C3.15616868 41.76334458 2.93196197 39.12672928 2.71289062 36.48950195 C2.43249167 33.11412184 2.14390944 29.73950993 1.8521328 26.36509609 C1.57333289 23.13814695 1.29823864 19.91088557 1.0234375 16.68359375 C0.92034271 15.47311874 0.81724792 14.26264374 0.71102905 13.01548767 C0.61738068 11.89074539 0.5237323 10.76600311 0.42724609 9.60717773 C0.34445404 8.61854233 0.26166199 7.62990692 0.17636108 6.61131287 C0.02780975 4.41176863 0 2.20455491 0 0 Z M8 6 C7.90522952 12.63689519 8.25870978 19.11658268 8.875 25.72265625 C8.96378418 26.70874374 9.05256836 27.69483124 9.14404297 28.71080017 C9.42560302 31.82838803 9.71270852 34.94543562 10 38.0625 C10.19307656 40.18941973 10.38578848 42.3163726 10.578125 44.44335938 C11.04786879 49.62929675 11.5221539 54.81480326 12 60 C14.88716168 60.84023302 17.77652883 61.67082541 20.66796875 62.49609375 C21.48197144 62.73404663 22.29597412 62.97199951 23.13464355 63.21716309 C34.00189061 66.29809783 42.48957046 63.80468038 53 60 C54.52201082 58.47798918 54.29245713 56.98908289 54.48071289 54.86669922 C54.60072411 53.54930252 54.60072411 53.54930252 54.72315979 52.20529175 C54.84666054 50.76949265 54.84666054 50.76949265 54.97265625 49.3046875 C55.1037101 47.83347946 55.1037101 47.83347946 55.2374115 46.33255005 C55.42191858 44.24956035 55.6041882 42.16637146 55.78442383 40.08300781 C56.05955517 36.90897281 56.34267659 33.73572751 56.62695312 30.5625 C56.80516848 28.53910481 56.98291757 26.51566848 57.16015625 24.4921875 C57.24451431 23.54713348 57.32887238 22.60207947 57.41578674 21.62838745 C57.83538683 16.7301482 58.09072581 11.91607275 58 7 C33.00600107 6.10828535 33.00600107 6.10828535 8 6 Z " fill="#FFFFFF" transform="translate(15,12)"/>
<path d="M0 0 C12.54 0 25.08 0 38 0 C38 2.31 38 4.62 38 7 C37 8 37 8 34.31616211 8.11352539 C33.14835205 8.10828857 31.98054199 8.10305176 30.77734375 8.09765625 C29.51728516 8.09443359 28.25722656 8.09121094 26.95898438 8.08789062 C25.61848891 8.07953403 24.27799412 8.07106907 22.9375 8.0625 C21.59310058 8.0574866 20.2486994 8.05292342 18.90429688 8.04882812 C15.60282059 8.03699488 12.30143197 8.02050971 9 8 C9.33 10.31 9.66 12.62 10 15 C18.91 15 27.82 15 37 15 C36.34 22.59 35.68 30.18 35 38 C23.1472454 42.44478298 15.81259378 43.00673216 4 39 C2.12175109 37.12175109 2.60897603 33.96064724 2.4375 31.4375 C2.35371094 30.23996094 2.26992188 29.04242188 2.18359375 27.80859375 C2.12300781 26.88175781 2.06242187 25.95492187 2 25 C4.97 25 7.94 25 11 25 C11 27.31 11 29.62 11 32 C16.60563042 32.82622671 21.42289352 33.06795656 27 32 C27 29.03 27 26.06 27 23 C18.75 23 10.5 23 2 23 C1.67 20.504375 1.34 18.00875 1 15.4375 C0.84337891 14.28012329 0.84337891 14.28012329 0.68359375 13.09936523 C0.60238281 12.46716064 0.52117188 11.83495605 0.4375 11.18359375 C0.35371094 10.54993896 0.26992188 9.91628418 0.18359375 9.26342773 C-0.06609731 6.18512211 0 3.08841563 0 0 Z " fill="#FFFFFF" transform="translate(29,27)"/>
</svg>
