<?xml version="1.0" encoding="UTF-8"?>
<svg version="1.1" xmlns="http://www.w3.org/2000/svg" width="96" height="96">
<path d="M0 0 C21.78 0 43.56 0 66 0 C66 21.78 66 43.56 66 66 C44.22 66 22.44 66 0 66 C0 44.22 0 22.44 0 0 Z M6 6 C6 23.82 6 41.64 6 60 C23.82 60 41.64 60 60 60 C60 42.18 60 24.36 60 6 C42.18 6 24.36 6 6 6 Z " fill="#FFFFFF" transform="translate(15,15)"/>
<path d="M0 0 C2.62020825 0.5268897 3.55067186 1.32884548 5.15625 3.43359375 C5.15625 4.09359375 5.15625 4.75359375 5.15625 5.43359375 C2.90625 6.55859375 2.90625 6.55859375 0.15625 7.43359375 C-2.15625 6.55859375 -2.15625 6.55859375 -3.84375 5.43359375 C-1.5052304 8.94137314 0.42038448 9.64349152 4.15625 11.43359375 C6.74960905 14.0269528 6.43351563 15.92106407 6.51953125 19.4609375 C6.03976493 22.06612021 5.30878554 22.90613949 3.15625 24.43359375 C0.81640625 24.83203125 0.81640625 24.83203125 -1.78125 24.80859375 C-2.63589844 24.81632812 -3.49054687 24.8240625 -4.37109375 24.83203125 C-7.32300464 24.35636788 -8.72602182 23.52675431 -10.84375 21.43359375 C-10.84375 20.44359375 -10.84375 19.45359375 -10.84375 18.43359375 C-9.19375 17.77359375 -7.54375 17.11359375 -5.84375 16.43359375 C-5.84375 17.09359375 -5.84375 17.75359375 -5.84375 18.43359375 C-3.86375 18.43359375 -1.88375 18.43359375 0.15625 18.43359375 C-1.78113755 16.28094091 -3.39092495 15.12717578 -5.96875 13.68359375 C-8.84375 11.43359375 -8.84375 11.43359375 -9.90625 7.93359375 C-9.84375 4.43359375 -9.84375 4.43359375 -8.96875 1.99609375 C-6.00856301 -0.18051433 -3.59672025 -0.00599453 0 0 Z " fill="#FFFFFF" transform="translate(62.84375,44.56640625)"/>
<path d="M0 0 C1.65 0 3.3 0 5 0 C5.08703823 3.43734063 5.14040272 6.87439837 5.1875 10.3125 C5.22520508 11.77719727 5.22520508 11.77719727 5.26367188 13.27148438 C5.27817383 14.67817383 5.27817383 14.67817383 5.29296875 16.11328125 C5.31653442 17.40939331 5.31653442 17.40939331 5.34057617 18.73168945 C4.92727863 21.48433994 4.19616863 22.34317138 2 24 C-0.15625 24.3984375 -0.15625 24.3984375 -2.5 24.375 C-3.2734375 24.38273437 -4.046875 24.39046875 -4.84375 24.3984375 C-7.45159728 23.91655268 -8.33871866 23.01270624 -10 21 C-9.505 19.515 -9.505 19.515 -9 18 C-5.76565159 16.66164893 -4.58579314 17.10355171 -1 18 C-0.505 9.09 -0.505 9.09 0 0 Z " fill="#FFFFFF" transform="translate(43,45)"/>
</svg>
