<?xml version="1.0" encoding="UTF-8"?>
<svg version="1.1" xmlns="http://www.w3.org/2000/svg" width="96" height="96">
<path d="M0 0 C7.92 0 15.84 0 24 0 C24 2.97 24 5.94 24 9 C27.96 9 31.92 9 36 9 C36 15.93 36 22.86 36 30 C38.97 30 41.94 30 45 30 C45 37.92 45 45.84 45 54 C42.03 54 39.06 54 36 54 C36 55.98 36 57.96 36 60 C38.97 60 41.94 60 45 60 C45 67.92 45 75.84 45 84 C37.08 84 29.16 84 21 84 C21 81.03 21 78.06 21 75 C15.06 75 9.12 75 3 75 C3 77.97 3 80.94 3 84 C-4.92 84 -12.84 84 -21 84 C-21 76.08 -21 68.16 -21 60 C-18.03 60 -15.06 60 -12 60 C-12 58.02 -12 56.04 -12 54 C-14.97 54 -17.94 54 -21 54 C-21 46.08 -21 38.16 -21 30 C-18.03 30 -15.06 30 -12 30 C-12 23.07 -12 16.14 -12 9 C-8.04 9 -4.08 9 0 9 C0 6.03 0 3.06 0 0 Z M6 6 C6 9.96 6 13.92 6 18 C9.96 18 13.92 18 18 18 C18 14.04 18 10.08 18 6 C14.04 6 10.08 6 6 6 Z M-6 15 C-6 19.95 -6 24.9 -6 30 C-3.03 30 -0.06 30 3 30 C3 32.97 3 35.94 3 39 C8.94 39 14.88 39 21 39 C21 36.03 21 33.06 21 30 C23.97 30 26.94 30 30 30 C30 25.05 30 20.1 30 15 C28.02 15 26.04 15 24 15 C24 17.97 24 20.94 24 24 C16.08 24 8.16 24 0 24 C0 21.03 0 18.06 0 15 C-1.98 15 -3.96 15 -6 15 Z M-15 36 C-15 39.96 -15 43.92 -15 48 C-11.04 48 -7.08 48 -3 48 C-3 44.04 -3 40.08 -3 36 C-6.96 36 -10.92 36 -15 36 Z M27 36 C27 39.96 27 43.92 27 48 C30.96 48 34.92 48 39 48 C39 44.04 39 40.08 39 36 C35.04 36 31.08 36 27 36 Z M3 45 C3 47.97 3 50.94 3 54 C0.03 54 -2.94 54 -6 54 C-6 55.98 -6 57.96 -6 60 C-3.03 60 -0.06 60 3 60 C3 62.97 3 65.94 3 69 C8.94 69 14.88 69 21 69 C21 66.03 21 63.06 21 60 C23.97 60 26.94 60 30 60 C30 58.02 30 56.04 30 54 C27.03 54 24.06 54 21 54 C21 51.03 21 48.06 21 45 C15.06 45 9.12 45 3 45 Z M-15 66 C-15 69.96 -15 73.92 -15 78 C-11.04 78 -7.08 78 -3 78 C-3 74.04 -3 70.08 -3 66 C-6.96 66 -10.92 66 -15 66 Z M27 66 C27 69.96 27 73.92 27 78 C30.96 78 34.92 78 39 78 C39 74.04 39 70.08 39 66 C35.04 66 31.08 66 27 66 Z " fill="#FFFFFF" transform="translate(36,6)"/>
</svg>
