<?xml version="1.0" encoding="UTF-8"?>
<svg version="1.1" xmlns="http://www.w3.org/2000/svg" width="96" height="96">
<path d="M0 0 C5 1 5 1 6 2 C6.36294198 6.4850048 6.44230621 10.97522437 6.51489258 15.47265625 C6.54649008 16.9841512 6.59420369 18.49539979 6.65844727 20.00585938 C7.18321607 32.51262097 7.18321607 32.51262097 4.30664062 36.12866211 C0.83315582 38.39981763 -1.44833249 38.99048849 -5.625 39.0625 C-12.30294287 36.96018465 -12.30294287 36.96018465 -15 34 C-15.98677072 29.15477852 -16.04406995 24.83809464 -15 20 C-12.79557888 17.0828713 -10.56950961 15.73911194 -7 15 C-4.69 15.33 -2.38 15.66 0 16 C0 10.72 0 5.44 0 0 Z M-5 22 C-6.32 22.99 -7.64 23.98 -9 25 C-8.81171228 27.44480079 -8.81171228 27.44480079 -8 30 C-6.03241727 31.36020151 -6.03241727 31.36020151 -4 32 C-2.68 31.01 -1.36 30.02 0 29 C-0.18828772 26.55519921 -0.18828772 26.55519921 -1 24 C-2.96758273 22.63979849 -2.96758273 22.63979849 -5 22 Z " fill="#FFFFFF" transform="translate(63,18)"/>
<path d="M0 0 C3.8108959 4.18269062 3.51255877 7.99252637 3.27734375 13.5 C2.50173231 17.09409019 1.98667399 18.20066424 -1 20.25 C-6.49120694 22.70990575 -10.36321417 21.52907147 -15.875 19.625 C-19.6858959 15.44230938 -19.38755877 11.63247363 -19.15234375 6.125 C-18.37673231 2.53090981 -17.86167399 1.42433576 -14.875 -0.625 C-9.38379306 -3.08490575 -5.51178583 -1.90407147 0 0 Z " fill="#FFFFFF" transform="translate(42.4375,35.1875)"/>
<path d="M0 0 C2.5625 2.3125 2.5625 2.3125 3.1875 5.375 C2.5625 8.3125 2.5625 8.3125 0.8125 10.125 C-1.32699531 11.25417808 -3.07596319 11.85542836 -5.4375 12.3125 C-6.4275 12.6425 -7.4175 12.9725 -8.4375 13.3125 C-6.4575 14.6325 -4.4775 15.9525 -2.4375 17.3125 C-2.7675 18.3025 -3.0975 19.2925 -3.4375 20.3125 C-7.80082641 21.49423424 -10.70569678 21.66743356 -14.875 19.75 C-17.82272763 17.71370283 -18.37597312 16.56932117 -19.22265625 13.03515625 C-19.74250708 4.02755918 -19.74250708 4.02755918 -16.87109375 0.25390625 C-11.02175455 -3.786831 -6.22418981 -3.05551136 0 0 Z M-8.4375 4.3125 C-8.7675 4.9725 -9.0975 5.6325 -9.4375 6.3125 C-8.4475 5.9825 -7.4575 5.6525 -6.4375 5.3125 C-7.0975 4.9825 -7.7575 4.6525 -8.4375 4.3125 Z M-12.4375 7.3125 C-11.4375 11.3125 -11.4375 11.3125 -11.4375 11.3125 Z " fill="#FFFFFF" transform="translate(90.4375,35.6875)"/>
<path d="M0 0 C1.67016516 0.99414593 3.33720673 1.9935725 5 3 C7.70953551 3.25196129 7.70953551 3.25196129 10 3 C10 4.32 10 5.64 10 7 C9.01 7 8.02 7 7 7 C7.020625 7.66386719 7.04125 8.32773437 7.0625 9.01171875 C6.89969498 15.98180861 6.89969498 15.98180861 4.3984375 18.8125 C0.93541476 21.16575097 -1.7891403 22.37967702 -6 21.8125 C-6.99 21.544375 -7.98 21.27625 -9 21 C-9 20.34 -9 19.68 -9 19 C-9.804375 18.855625 -10.60875 18.71125 -11.4375 18.5625 C-14 18 -14 18 -15 17 C-15.60606303 12.57636466 -15.74398029 8.40997013 -15 4 C-11.1129907 -1.07087001 -5.92775105 -1.78950975 0 0 Z M-9.5 2.6875 C-11.94734929 4.47521218 -12.86452817 5.36285903 -13.5 8.3515625 C-13.5 10.62144469 -13.35150673 12.7591446 -13 15 C-12.01 15.33 -11.02 15.66 -10 16 C-10 12.7 -10 9.4 -10 6 C-8.68 6.33 -7.36 6.66 -6 7 C-3.66699067 7.03888349 -1.33290199 7.0448635 1 7 C1.33 8.65 1.66 10.3 2 12 C2.33 12 2.66 12 3 12 C3 9.69 3 7.38 3 5 C-1.33901188 1.89576012 -4.47734836 0.03266985 -9.5 2.6875 Z M-4 12 C0 13 0 13 0 13 Z M2 13 C2 13.66 2 14.32 2 15 C-0.97 15 -3.94 15 -7 15 C-7.33 16.32 -7.66 17.64 -8 19 C-6.35669053 19.89724685 -6.35669053 19.89724685 -4 20 C-1.49713591 18.86915563 0.67007722 17.47860484 3 16 C2.67 15.01 2.34 14.02 2 13 Z " fill="#FFFFFF" transform="translate(51,55)"/>
<path d="M0 0 C2.8125 2.44921875 2.8125 2.44921875 3.3984375 6.33984375 C3.3587752 7.79412812 3.28750701 9.24783503 3.1875 10.69921875 C3.16042969 11.44429687 3.13335938 12.189375 3.10546875 12.95703125 C3.03500808 14.78900868 2.92738993 16.61949026 2.8125 18.44921875 C-2.0625 17.57421875 -2.0625 17.57421875 -3.1875 16.44921875 C-3.38909109 14.16003994 -3.50642937 11.87359812 -3.61328125 9.578125 C-3.98118828 7.25651736 -3.98118828 7.25651736 -6.23046875 6.1640625 C-6.87628906 5.92816406 -7.52210937 5.69226562 -8.1875 5.44921875 C-9.1775 6.10921875 -10.1675 6.76921875 -11.1875 7.44921875 C-11.65635852 9.58176979 -11.65635852 9.58176979 -11.6875 11.94921875 C-11.78125 14.35546875 -11.78125 14.35546875 -12.1875 16.44921875 C-15.1875 18.44921875 -15.1875 18.44921875 -18.1875 18.44921875 C-19.39416853 4.18706707 -19.39416853 4.18706707 -16.65234375 0.23828125 C-10.91190162 -3.58868017 -6.07120883 -2.95376214 0 0 Z " fill="#FFFFFF" transform="translate(18.1875,35.55078125)"/>
</svg>
