<?xml version="1.0" encoding="UTF-8"?>
<svg version="1.1" xmlns="http://www.w3.org/2000/svg" width="96" height="96">
<path d="M0 0 C4.47162637 2.11813881 7.04275148 4.4330868 9 9 C9.1875 12.3125 9.1875 12.3125 9 15 C10.98 15 12.96 15 15 15 C14.0919838 16.13199353 13.17316174 17.25532363 12.25 18.375 C11.48429687 19.31472656 11.48429687 19.31472656 10.703125 20.2734375 C8.91800519 22.08312318 7.32050356 23.00117455 5 24 C3.66368764 22.6905332 2.33102075 21.37734515 1 20.0625 C0.2575 19.33160156 -0.485 18.60070312 -1.25 17.84765625 C-3 16 -3 16 -3 15 C-1.35 15 0.3 15 2 15 C0.92598892 12.08482708 0.22189824 10.22189824 -2 8 C-7.20087258 7.46032906 -7.20087258 7.46032906 -11.9375 9.125 C-13.38591512 11.68102669 -13.67815583 14.10340247 -14 17 C-13.154375 17.185625 -12.30875 17.37125 -11.4375 17.5625 C-5.24166785 20.15348435 -0.42262145 25.36908093 2.33984375 31.50390625 C4.51080709 39.71245995 4.06284549 48.60205876 0.16796875 56.16796875 C-1.11652719 58.18278011 -2.56633962 60.08845283 -4 62 C-0.7 62.33 2.6 62.66 6 63 C6 61.02 6 59.04 6 57 C7.13199353 57.9080162 8.25532363 58.82683826 9.375 59.75 C10.00148438 60.26046875 10.62796875 60.7709375 11.2734375 61.296875 C13.08312318 63.08199481 14.00117455 64.67949644 15 67 C13.6905332 68.33631236 12.37734515 69.66897925 11.0625 71 C10.33160156 71.7425 9.60070312 72.485 8.84765625 73.25 C7 75 7 75 6 75 C6 73.02 6 71.04 6 69 C-14.79 69 -35.58 69 -57 69 C-57 67.02 -57 65.04 -57 63 C-55.57119507 62.970271 -55.57119507 62.970271 -54.11352539 62.93994141 C-50.54052668 62.86320563 -46.96789966 62.77460022 -43.39526367 62.68261719 C-41.85627645 62.64460557 -40.31720876 62.60970707 -38.77807617 62.578125 C-22.88279824 62.82669639 -22.88279824 62.82669639 -9.44140625 55.6171875 C-4.84718332 50.46269349 -4.46190919 45.59629882 -4.65234375 38.90625 C-5.32289909 33.30070872 -7.8527032 29.83088097 -12.0625 26.125 C-17.60880863 22.11277674 -23.37402052 22.3898255 -30 23 C-35.33974655 24.68370387 -38.96524115 28.40450803 -42 33 C-42.93307545 35.96931823 -43.5419805 38.92374961 -44 42 C-42.35 42 -40.7 42 -39 42 C-39.9080162 43.13199353 -40.82683826 44.25532363 -41.75 45.375 C-42.26046875 46.00148437 -42.7709375 46.62796875 -43.296875 47.2734375 C-45.08199481 49.08312318 -46.67949644 50.00117455 -49 51 C-50.33631236 49.6905332 -51.66897925 48.37734515 -53 47.0625 C-53.7425 46.33160156 -54.485 45.60070313 -55.25 44.84765625 C-57 43 -57 43 -57 42 C-55.02 42 -53.04 42 -51 42 C-51.0825 40.845 -51.165 39.69 -51.25 38.5 C-51.25 31.47353054 -47.51038433 26.15472495 -43 21 C-43.66 20.34 -44.32 19.68 -45 19 C-45.265625 17.125 -45.265625 17.125 -45.25 15 C-45.25515625 14.29875 -45.2603125 13.5975 -45.265625 12.875 C-45 11 -45 11 -43 9 C-41.125 8.734375 -41.125 8.734375 -39 8.75 C-38.29875 8.74484375 -37.5975 8.7396875 -36.875 8.734375 C-35 9 -35 9 -33 11 C-32.67 12.32 -32.34 13.64 -32 15 C-28.37 15 -24.74 15 -21 15 C-21.0825 14.13375 -21.165 13.2675 -21.25 12.375 C-20.9353436 8.12713862 -19.68693655 6.2678958 -17 3 C-11.59547494 -0.91874498 -6.45633217 -0.78735758 0 0 Z " fill="#FFFFFF" transform="translate(69,12)"/>
</svg>
