<?xml version="1.0" encoding="UTF-8"?>
<svg version="1.1" xmlns="http://www.w3.org/2000/svg" width="96" height="96">
<path d="M0 0 C31.68 0 63.36 0 96 0 C96 17.82 96 35.64 96 54 C64.32 54 32.64 54 0 54 C0 36.18 0 18.36 0 0 Z M6 6 C6 19.86 6 33.72 6 48 C33.72 48 61.44 48 90 48 C90 34.14 90 20.28 90 6 C62.28 6 34.56 6 6 6 Z " fill="#FFFFFF" transform="translate(0,21)"/>
<path d="M0 0 C0.7734375 -0.00773437 1.546875 -0.01546875 2.34375 -0.0234375 C5.04341476 0.4754136 5.79238278 1.25851246 7.5 3.375 C7.90063477 5.27270508 7.90063477 5.27270508 7.94140625 7.39453125 C7.96783203 8.16990234 7.99425781 8.94527344 8.02148438 9.74414062 C8.03501953 10.55044922 8.04855469 11.35675781 8.0625 12.1875 C8.18192293 17.64114703 8.43718234 22.23038245 10.5 27.375 C8.19 27.375 5.88 27.375 3.5 27.375 C3.17 26.715 2.84 26.055 2.5 25.375 C1.38625 25.230625 0.2725 25.08625 -0.875 24.9375 C-4.59889604 24.35965406 -5.34259488 24.23747659 -7.5 21.375 C-7.88818359 19.4296875 -7.88818359 19.4296875 -7.8984375 17.25 C-7.90230469 16.46109375 -7.90617187 15.6721875 -7.91015625 14.859375 C-7.89855469 14.03953125 -7.88695312 13.2196875 -7.875 12.375 C-7.88660156 11.55515625 -7.89820313 10.7353125 -7.91015625 9.890625 C-7.90435547 8.70726562 -7.90435547 8.70726562 -7.8984375 7.5 C-7.89505371 6.78070313 -7.89166992 6.06140625 -7.88818359 5.3203125 C-7.00852933 0.91208282 -4.12464529 -0.04124645 0 0 Z M-0.5 7.375 C-1.91577477 8.55924326 -1.91577477 8.55924326 -1.5625 11.9375 C-1.541875 13.071875 -1.52125 14.20625 -1.5 15.375 C-0.51 15.375 0.48 15.375 1.5 15.375 C1.5 13.065 1.5 10.755 1.5 8.375 C0.84 8.045 0.18 7.715 -0.5 7.375 Z " fill="#FFFFFF" transform="translate(49.5,35.625)"/>
<path d="M0 0 C0.7734375 -0.00773437 1.546875 -0.01546875 2.34375 -0.0234375 C4.99824309 0.46706666 5.89704522 1.23263821 7.5 3.375 C7.6875 6.0625 7.6875 6.0625 7.5 8.375 C6.51 8.705 5.52 9.035 4.5 9.375 C4.98726562 9.7771875 5.47453125 10.179375 5.9765625 10.59375 C7.88636966 12.8267553 7.90401742 13.97325803 7.875 16.875 C7.88273437 17.6484375 7.89046875 18.421875 7.8984375 19.21875 C7.39913962 21.92083262 6.73477449 22.79575936 4.5 24.375 C2.34375 24.7734375 2.34375 24.7734375 0 24.75 C-0.7734375 24.75773437 -1.546875 24.76546875 -2.34375 24.7734375 C-4.99824309 24.28293334 -5.89704522 23.51736179 -7.5 21.375 C-7.6875 18.6875 -7.6875 18.6875 -7.5 16.375 C-5.19 16.375 -2.88 16.375 -0.5 16.375 C-1.675625 15.941875 -1.675625 15.941875 -2.875 15.5 C-5.5 14.375 -5.5 14.375 -7.5 12.375 C-7.80078125 10.31640625 -7.80078125 10.31640625 -7.8125 7.9375 C-7.82925781 7.15503906 -7.84601562 6.37257813 -7.86328125 5.56640625 C-7.5 3.375 -7.5 3.375 -6.26171875 1.61328125 C-4.0379325 0.05022085 -2.70079363 -0.02700794 0 0 Z " fill="#FFFFFF" transform="translate(31.5,35.625)"/>
<path d="M0 0 C1.98 0 3.96 0 6 0 C6 5.94 6 11.88 6 18 C7.98 18 9.96 18 12 18 C12 19.98 12 21.96 12 24 C8.04 24 4.08 24 0 24 C0 16.08 0 8.16 0 0 Z " fill="#FFFFFF" transform="translate(63,36)"/>
</svg>
